<svg width="24" height="24" viewBox="0 0 24 24" fill="none" xmlns="http://www.w3.org/2000/svg">
<path d="M0 12C0 5.37258 5.37258 0 12 0V0C18.6274 0 24 5.37258 24 12V12C24 18.6274 18.6274 24 12 24V24C5.37258 24 0 18.6274 0 12V12Z" fill="#FD7D73"/>
<path d="M17.25 5.25H14.115C13.8 4.38 12.975 3.75 12 3.75C11.025 3.75 10.2 4.38 9.885 5.25H6.75C5.925 5.25 5.25 5.925 5.25 6.75V17.25C5.25 18.075 5.925 18.75 6.75 18.75H17.25C18.075 18.75 18.75 18.075 18.75 17.25V6.75C18.75 5.925 18.075 5.25 17.25 5.25ZM12 5.25C12.4125 5.25 12.75 5.5875 12.75 6C12.75 6.4125 12.4125 6.75 12 6.75C11.5875 6.75 11.25 6.4125 11.25 6C11.25 5.5875 11.5875 5.25 12 5.25ZM12 8.25C13.245 8.25 14.25 9.255 14.25 10.5C14.25 11.745 13.245 12.75 12 12.75C10.755 12.75 9.75 11.745 9.75 10.5C9.75 9.255 10.755 8.25 12 8.25ZM16.5 17.25H7.5V16.2C7.5 14.7 10.5 13.875 12 13.875C13.5 13.875 16.5 14.7 16.5 16.2V17.25Z" fill="white"/>
</svg>
